<svg width="152" height="36" viewBox="0 0 152 36" fill="none" xmlns="http://www.w3.org/2000/svg">
<path d="M30.5201 23.2613C30.5201 28.2663 27.5379 31.25 22.5355 31.25H20.9001C20.1443 31.25 19.5258 30.6313 19.5258 29.875V21.9412C19.5258 21.57 19.8282 21.2537 20.1992 21.2537L22.618 21.2125C22.8104 21.1987 22.9753 21.0613 23.0165 20.8687L23.4975 18.2425C23.5069 18.183 23.5032 18.1221 23.4868 18.0642C23.4703 18.0062 23.4415 17.9525 23.4023 17.9067C23.3631 17.861 23.3145 17.8243 23.2597 17.7992C23.205 17.7741 23.1455 17.7611 23.0852 17.7612L20.158 17.8025C19.7732 17.8025 19.4709 17.5 19.4571 17.1287L19.4022 13.76C19.4022 13.54 19.5808 13.3475 19.8144 13.3475L23.1127 13.2925C23.3464 13.2925 23.525 13.1138 23.525 12.88L23.47 9.58C23.47 9.34625 23.2914 9.1675 23.0578 9.1675L19.3472 9.2225C18.8055 9.23073 18.2708 9.34583 17.7737 9.56119C17.2766 9.77656 16.8268 10.088 16.4502 10.4775C16.0736 10.8671 15.7775 11.3273 15.5789 11.8315C15.3804 12.3358 15.2832 12.8743 15.293 13.4162L15.3618 17.1975C15.3755 17.5825 15.0732 17.885 14.6884 17.8988L13.0392 17.9263C12.8056 17.9263 12.6269 18.105 12.6269 18.3387L12.6682 20.9513C12.6682 21.185 12.8468 21.3638 13.0804 21.3638L14.7296 21.3363C15.1144 21.3363 15.4167 21.6388 15.4305 22.01L15.5542 29.8475C15.5679 30.6175 14.9495 31.25 14.1799 31.25H11.019C6.01662 31.25 3.03442 28.2663 3.03442 23.2475V11.7387C3.03442 6.73375 6.01662 3.75 11.019 3.75H22.5355C27.5379 3.75 30.5201 6.73375 30.5201 11.7387V23.2613Z" fill="white"/>
<path d="M142.171 30H129.261C125.388 30 122.806 27 122.806 22.5V13.5C122.806 9 125.388 6 129.261 6H142.171C146.044 6 148.626 9 148.626 13.5V22.5C148.626 27 146.044 30 142.171 30Z" stroke="white" stroke-width="1.5" stroke-miterlimit="10" stroke-linecap="round" stroke-linejoin="round"/>
<path d="M134.941 14.25L138.168 16.5C139.33 17.4 139.33 18.75 138.168 19.65L134.941 21.9C133.65 22.8 132.617 22.05 132.617 20.4V15.9C132.617 13.95 133.65 13.35 134.941 14.25Z" stroke="white" stroke-width="1.5" stroke-miterlimit="10" stroke-linecap="round" stroke-linejoin="round"/>
<path d="M90.4613 16.6886C89.994 8.71364 82.7516 2.56739 74.4097 3.94239C68.6651 4.89114 64.0613 9.55239 63.168 15.2999C62.6458 18.6274 63.3329 21.7761 64.8309 24.3749L63.6078 28.9261C63.3329 29.9574 64.2812 30.8924 65.2981 30.6036L69.7783 29.3661C71.8123 30.5624 74.1898 31.2499 76.7322 31.2499C84.4832 31.2499 90.9148 24.4161 90.4613 16.6886ZM83.4524 22.6149C83.121 23.2951 82.5548 23.8323 81.8583 24.1274C81.446 24.3061 80.9925 24.3886 80.5115 24.3886C79.8106 24.3886 79.0547 24.2236 78.2714 23.8799C77.4365 23.5131 76.6439 23.0567 75.9076 22.5186C75.1105 21.9411 74.3684 21.2949 73.6538 20.5936C72.9392 19.8786 72.307 19.1224 71.7298 18.3386C71.1663 17.5549 70.7128 16.7711 70.383 15.9874C70.0532 15.2036 69.8883 14.4474 69.8883 13.7324C69.8883 13.2649 69.9707 12.8111 70.1356 12.3986C70.3005 11.9724 70.5617 11.5874 70.9327 11.2436C71.3725 10.8036 71.8535 10.5974 72.362 10.5974C72.5544 10.5974 72.7468 10.6386 72.9254 10.7211C73.1041 10.8036 73.269 10.9274 73.3927 11.1061L74.9869 13.3611C75.1105 13.5399 75.2067 13.6911 75.2617 13.8424C75.3304 13.9936 75.3579 14.1311 75.3579 14.2686C75.3579 14.4336 75.3029 14.5986 75.2067 14.7636C75.1105 14.9286 74.9869 15.0936 74.8219 15.2586L74.2997 15.8086C74.2173 15.8911 74.1898 15.9736 74.1898 16.0836C74.1898 16.1386 74.2035 16.1936 74.2173 16.2486C74.2447 16.3036 74.2585 16.3449 74.2722 16.3861C74.3959 16.6199 74.6158 16.9086 74.9181 17.2661C75.5616 18.0226 76.2647 18.7261 77.0208 19.3699C77.3781 19.6724 77.6805 19.8786 77.9141 20.0024C77.9553 20.0161 77.9965 20.0436 78.0378 20.0574C78.0927 20.0849 78.1477 20.0849 78.2164 20.0849C78.3401 20.0849 78.4226 20.0436 78.505 19.9611L79.0273 19.4386C79.2059 19.2599 79.3708 19.1361 79.522 19.0536C79.6869 18.9574 79.8381 18.9024 80.0167 18.9024C80.1542 18.9024 80.2916 18.9299 80.4428 18.9986C80.5939 19.0674 80.7589 19.1499 80.9238 19.2736L83.2051 20.8961C83.3837 21.0199 83.5074 21.1711 83.5899 21.3361C83.6586 21.5149 83.6998 21.6799 83.6998 21.8724C83.6174 22.1061 83.5624 22.3674 83.4524 22.6149Z" fill="white"/>
</svg>
