<svg width="314" height="50" viewBox="0 0 314 50" fill="none" xmlns="http://www.w3.org/2000/svg">
<rect x="0.567383" width="312.837" height="50" fill="#EAAB0A"/>
<path d="M15.6566 23.4H20.3366V25.95H15.6566V23.4ZM15.8966 27.33H21.1466V30H12.4166V19.5H20.9516V22.17H15.8966V27.33ZM22.2094 30V19.5H25.1194L29.3194 26.355H27.7894L31.8694 19.5H34.7794L34.8094 30H31.5844L31.5544 24.36H32.0644L29.2744 29.055H27.7144L24.8044 24.36H25.4344V30H22.2094ZM35.0809 30L39.6709 19.5H43.1509L47.7409 30H44.0809L40.6909 21.18H42.0709L38.6809 30H35.0809ZM37.8109 28.17L38.7109 25.62H43.5409L44.4409 28.17H37.8109ZM48.0059 30V19.5H51.5459V30H48.0059ZM52.95 30V19.5H56.49V27.255H61.23V30H52.95Z" fill="white" fill-opacity="0.8"/>
</svg>
